#!OML:ASF E:\emotionWalksFemale\Project 1\Capture day 1\Session 1\Female1.ASF
:FULLY-SPECIFIED
:DEGREES
1472
root 10.3482 15.2457 -19.3711 -185.492 -12.7915 -171.958
lowerback 2.17343 6.78662 2.99811
upperback -3.09151 9.16618 0.5718
thorax -4.0312 4.45484 -1.54684
lowerneck 7.27074 -12.1996 -16.8474
upperneck 1.92443 -18.6707 19.2376
head 2.80946 -9.78689 8.0313
rclavicle -2.80286e-014 -3.18055e-015
rhumerus -43.2351 5.38485 -90.6509
rradius 30.7579
rwrist 19.6509
rhand -0.332169 -52.6865
rfingers 7.12502
rthumb 25.2722 998.967
lclavicle -2.80286e-014 -3.18055e-015
lhumerus -50.3808 3.13757 75.0125
lradius 37.2229
lwrist -20.266
lhand -4.59305 -30.3944
lfingers 7.12502
lthumb 21.1844 -1.53187
rfemur 14.6747 3.65778 41.1627
rtibia 0
rfoot -15.56 -26.1328
rtoes 16.3214
lfemur -31.2153 -21.2179 -16.1286
ltibia 30.7236
lfoot -16.7311 20.0529
ltoes -1.76884
1473
root 10.3456 15.2399 -19.4342 -185.421 -12.9941 -172.126
lowerback 2.09061 6.74637 2.81626
upperback -3.07893 9.09998 0.486114
thorax -3.98779 4.42854 -1.52263
lowerneck 6.67666 -12.3553 -16.9082
upperneck 2.53434 -18.8726 19.0159
head 3.10543 -9.84835 7.88356
rclavicle 3.4191e-014 2.3059e-014
rhumerus -43.2706 5.58061 -90.7645
rradius 30.8299
rwrist 19.9962
rhand 0.148633 -52.8779
rfingers 7.12502
rthumb 25.7327 998.842
lclavicle 3.4191e-014 2.3059e-014
lhumerus -50.2735 3.94108 74.2857
lradius 36.5283
lwrist -20.9706
lhand -4.65203 -30.8951
lfingers 7.12502
lthumb 21.1277 -2.02625
rfemur 14.8938 3.33154 41.0347
rtibia 3.18055e-015
rfoot -15.5536 -26.0167
rtoes 16.6246
lfemur -31.1384 -22.0881 -16.1998
ltibia 30.2086
lfoot -17.62 20.9508
ltoes -0.229231
1474
root 10.3454 15.2377 -19.4956 -185.179 -12.898 -172.188
lowerback 1.99437 6.81533 2.76702
upperback -3.23252 9.18234 0.371812
thorax -4.07925 4.46446 -1.61432
lowerneck 6.44116 -12.477 -17.0092
upperneck 2.93293 -19.073 18.9494
head 3.30034 -9.93417 7.82472
rclavicle 1.78906e-015 1.27222e-014
rhumerus -43.385 5.89656 -91.1292
rradius 30.732
rwrist 19.9696
rhand 0.289561 -52.967
rfingers 7.12502
rthumb 25.8677 998.772
lclavicle 1.78906e-015 1.27222e-014
lhumerus -50.4683 3.68833 74.1492
lradius 36.3777
lwrist -20.6246
lhand -4.86549 -30.4797
lfingers 7.12502
lthumb 20.9226 -1.58808
rfemur 14.8898 3.35457 41.0183
rtibia 4.77083e-015
rfoot -15.898 -25.8135
rtoes 19.0427
lfemur -31.3314 -22.8197 -15.9712
ltibia 29.8384
lfoot -18.3042 22.089
ltoes 0.669987
1475
root 10.3465 15.231 -19.5609 -185.185 -12.8644 -172.09
lowerback 2.0045 6.83506 2.83011
upperback -3.32489 9.20998 0.330996
thorax -4.16375 4.4716 -1.69844
lowerneck 6.01076 -12.7098 -16.9347
upperneck 3.75 -19.4092 18.4746
head 3.61568 -10.0691 7.572
rclavicle 9.76033e-014 2.38542e-014
rhumerus -43.4891 6.22215 -91.5216
rradius 30.6063
rwrist 19.7672
rhand 0.370423 -52.9991
rfingers 7.12502
rthumb 25.9451 998.752
lclavicle 9.76033e-014 2.38542e-014
lhumerus -50.7696 3.08179 74.2971
lradius 36.4931
lwrist -19.8989
lhand -4.877 -29.6373
lfingers 7.12502
lthumb 20.9116 -0.74448
rfemur 15.0963 3.22655 41.168
rtibia -3.97569e-014
rfoot -16.0324 -25.6881
rtoes 19.7571
lfemur -31.3119 -23.4325 -15.7248
ltibia 29.5999
lfoot -18.8428 23.0333
ltoes 1.80525
1476
root 10.345 15.2198 -19.62 -185.08 -12.8441 -172.08
lowerback 1.93698 6.86266 2.84654
upperback -3.36227 9.24265 0.274691
thorax -4.1515 4.48607 -1.75891
lowerneck 6.94315 -12.3785 -17.1419
upperneck 2.5561 -19.0167 19.3631
head 3.15223 -9.94598 8.02999
rclavicle -6.06293e-015 3.97569e-015
rhumerus -43.4816 6.41417 -91.7005
rradius 30.5983
rwrist 19.7412
rhand 0.540635 -52.8599
rfingers 7.12502
rthumb 26.1081 998.915
lclavicle -6.06293e-015 3.97569e-015
lhumerus -50.6915 4.07289 73.4503
lradius 35.8865
lwrist -21.0614
lhand -4.65297 -30.0302
lfingers 7.12502
lthumb 21.1268 -1.16126
rfemur 15.2351 3.12521 41.2245
rtibia 3.49861e-014
rfoot -15.8274 -25.6506
rtoes 18.8335
lfemur -31.4145 -23.9563 -15.5667
ltibia 29.4572
lfoot -19.4528 23.8493
ltoes 3.4838
1477
root 10.3438 15.2131 -19.6786 -184.849 -12.8916 -172.174
lowerback 1.76986 6.85866 2.73026
upperback -3.41568 9.22268 0.199154
thorax -4.11941 4.47849 -1.75469
lowerneck 6.96367 -12.334 -17.2711
upperneck 2.38973 -18.9633 19.5939
head 3.12671 -9.92629 8.1323
rclavicle 1.41833e-013 4.77083e-015
rhumerus -43.5085 6.73413 -91.9082
rradius 30.6457
rwrist 19.6936
rhand 0.688765 -52.7082
rfingers 7.12502
rthumb 26.2499 999.088
lclavicle 1.41833e-013 4.77083e-015
lhumerus -51.0041 3.72241 73.4215
lradius 36.1839
lwrist -20.6909
lhand -4.42592 -30.0855
lfingers 7.12502
lthumb 21.3449 -1.24113
rfemur 15.2787 3.00526 41.1646
rtibia -4.29375e-014
rfoot -15.649 -25.6411
rtoes 18.426
lfemur -31.5962 -24.2987 -15.5625
ltibia 29.3862
lfoot -19.8947 24.5902
ltoes 3.84457
1478
root 10.3421 15.2095 -19.7448 -184.737 -13.0096 -172.313
lowerback 1.59458 6.78422 2.5351
upperback -3.40931 9.10731 0.156952
thorax -4.04179 4.42876 -1.66614
lowerneck 6.98362 -12.2903 -17.2131
upperneck 2.26009 -18.8635 19.5065
head 3.05251 -9.87487 8.1129
rclavicle 7.55382e-015 4.37326e-014
rhumerus -43.5503 7.27509 -92.233
rradius 30.7094
rwrist 19.3939
rhand 0.68645 -52.6648
rfingers 7.12502
rthumb 26.2477 999.131
lclavicle 7.55382e-015 4.37326e-014
lhumerus -50.8319 4.25353 72.8785
lradius 35.1622
lwrist -21.103
lhand -4.70673 -30.6291
lfingers 7.12502
lthumb 21.0752 -1.75435
rfemur 15.4569 2.7759 41.042
rtibia 2.06736e-014
rfoot -15.8491 -25.6098
rtoes 18.7437
lfemur -31.5677 -24.5227 -15.7469
ltibia 29.3289
lfoot -20.2346 25.0424
ltoes 4.61546
1479
root 10.3375 15.1998 -19.8055 -184.555 -12.7828 -172.402
lowerback 1.53182 6.88076 2.57861
upperback -3.46888 9.23127 0.0451189
thorax -4.03847 4.48633 -1.80223
lowerneck 6.97625 -12.2731 -17.1091
upperneck 2.16423 -18.8154 19.508
head 3.00704 -9.851 8.10592
rclavicle 5.14852e-014 -1.35174e-014
rhumerus -43.5766 7.53931 -92.5028
rradius 30.7857
rwrist 18.9641
rhand 0.836231 -52.5568
rfingers 7.12502
rthumb 26.3911 999.26
lclavicle 5.14852e-014 -1.35174e-014
lhumerus -51.381 2.95402 73.517
lradius 35.9814
lwrist -19.5979
lhand -4.78313 -30.0807
lfingers 7.12502
lthumb 21.0018 -1.1978
rfemur 15.5878 2.90069 40.9798
rtibia 4.29375e-014
rfoot -16.4067 -25.4689
rtoes 19.6747
lfemur -31.6444 -24.7109 -15.7069
ltibia 29.2743
lfoot -20.861 25.2736
ltoes 8.48453
1480
root 10.3363 15.1898 -19.869 -184.516 -12.7599 -172.411
lowerback 1.57889 6.94599 2.63735
upperback -3.5236 9.31934 -0.0506825
thorax -4.09314 4.52471 -1.94336
lowerneck 6.98049 -12.3228 -17.0072
upperneck 2.16831 -18.8837 19.5125
head 3.01096 -9.88622 8.08537
rclavicle -9.44227e-015 -3.18055e-015
rhumerus -43.6404 7.3651 -92.5544
rradius 30.874
rwrist 18.8666
rhand 1.14168 -52.2139
rfingers 7.12502
rthumb 26.6834 999.647
lclavicle -9.44227e-015 -3.18055e-015
lhumerus -50.8877 4.76854 71.9312
lradius 34.4319
lwrist -21.8052
lhand -4.84292 -31.185
lfingers 7.12502
lthumb 20.9443 -2.29578
rfemur 15.8013 2.7782 41.0131
rtibia 9.54166e-015
rfoot -16.6816 -25.2379
rtoes 19.8584
lfemur -31.5258 -24.7168 -15.7944
ltibia 29.2783
lfoot -21.2464 25.0715
ltoes 10.6542
1481
root 10.3343 15.1909 -19.9339 -184.497 -12.7585 -172.378
lowerback 1.49709 6.94771 2.64297
upperback -3.51491 9.31805 -0.0649973
thorax -4.03485 4.52519 -1.94874
lowerneck 7.07773 -12.373 -17.0101
upperneck 2.04537 -18.9499 19.539
head 2.97476 -9.92487 8.09741
rclavicle 1.01778e-013 1.59028e-015
rhumerus -43.6737 7.43859 -92.6801
rradius 30.9189
rwrist 18.6891
rhand 1.07945 -52.0207
rfingers 7.12502
rthumb 26.6239 999.831
lclavicle 1.01778e-013 1.59028e-015
lhumerus -51.5001 4.2905 72.0503
lradius 35.4577
lwrist -21.1989
lhand -4.4509 -30.2138
lfingers 7.12502
lthumb 21.3209 -1.36667
rfemur 15.9651 2.6322 41.0877
rtibia -6.99722e-014
rfoot -16.3347 -24.7651
rtoes 19.645
lfemur -31.3554 -24.4583 -15.9616
ltibia 29.3415
lfoot -20.9753 25.1052
ltoes 8.61152
1482
root 10.3326 15.1895 -19.9983 -184.539 -12.6081 -172.195
lowerback 1.47642 6.98422 2.79781
upperback -3.48054 9.3731 -0.021089
thorax -3.96808 4.55042 -1.98204
lowerneck 7.01307 -12.3793 -17.0989
upperneck 2.00469 -18.9532 19.6213
head 2.99146 -9.92433 8.13064
rclavicle -5.36719e-014 1.59028e-015
rhumerus -43.6872 7.59505 -92.8566
rradius 30.9862
rwrist 18.4039
rhand 0.763983 -51.916
rfingers 7.12502
rthumb 26.3219 999.89
lclavicle -5.36719e-014 1.59028e-015
lhumerus -51.5694 4.08826 71.9886
lradius 35.463
lwrist -20.8963
lhand -4.41104 -30.1398
lfingers 7.12502
lthumb 21.3592 -1.29702
rfemur 16.1794 2.60353 41.3364
rtibia -3.18055e-015
rfoot -16.0412 -24.1278
rtoes 20.902
lfemur -31.1981 -24.2528 -15.8594
ltibia 29.3979
lfoot -20.4344 25.3164
ltoes 6.79259
1483
root 10.3289 15.1839 -20.0619 -184.604 -12.3841 -172.065
lowerback 1.60082 7.04545 2.97701
upperback -3.49275 9.46739 -0.00229942
thorax -4.02126 4.59025 -2.07842
lowerneck 6.94286 -12.3685 -17.1456
upperneck 2.00563 -18.9199 19.5818
head 2.9977 -9.90186 8.12267
rclavicle 8.85586e-014 1.74931e-014
rhumerus -43.7275 7.6781 -92.9528
rradius 31.0958
rwrist 18.2053
rhand 0.881147 -51.8045
rfingers 7.12502
rthumb 26.4341 1000.02
lclavicle 8.85586e-014 1.74931e-014
lhumerus -51.4245 4.22385 71.6144
lradius 34.677
lwrist -21.0629
lhand -4.61969 -31.1364
lfingers 7.12502
lthumb 21.1588 -2.27104
rfemur 16.466 2.6357 41.523
rtibia -4.77083e-015
rfoot -15.7509 -23.8257
rtoes 21.9042
lfemur -30.9456 -24.2766 -15.7121
ltibia 29.3956
lfoot -21.0939 24.9962
ltoes 10.8049
1484
root 10.3215 15.1816 -20.1226 -184.413 -12.1409 -172.287
lowerback 1.61848 7.10485 2.86977
upperback -3.58191 9.53962 -0.100173
thorax -4.12096 4.62386 -2.13283
lowerneck 6.94831 -12.3594 -17.2473
upperneck 2.00847 -18.9083 19.5616
head 3.00331 -9.89516 8.13223
rclavicle -3.80673e-014 -3.18055e-015
rhumerus -43.809 7.92603 -93.1417
rradius 31.1477
rwrist 18.0013
rhand 1.26662 -51.6809
rfingers 7.12502
rthumb 26.803 1000.2
lclavicle -3.80673e-014 -3.18055e-015
lhumerus -51.9565 4.72701 71.0674
lradius 35.0862
lwrist -21.5789
lhand -4.31075 -31.3246
lfingers 7.12502
lthumb 21.4555 -2.49272
rfemur 16.6042 2.78083 41.3261
rtibia -2.22639e-014
rfoot -15.4206 -23.8131
rtoes 21.7556
lfemur -30.839 -24.3298 -15.8709
ltibia 29.3958
lfoot -21.1569 25.0291
ltoes 9.85491
1485
root 10.3135 15.1787 -20.1829 -184.104 -12.0236 -172.7
lowerback 1.49709 7.1427 2.5612
upperback -3.65315 9.56672 -0.279672
thorax -4.14419 4.64293 -2.14134
lowerneck 6.82064 -12.3217 -17.2731
upperneck 2.12865 -18.8672 19.6205
head 3.0599 -9.87009 8.14577
rclavicle -5.13858e-014 2.06736e-014
rhumerus -43.8451 8.1453 -93.3574
rradius 31.1789
rwrist 17.8685
rhand 1.31432 -51.513
rfingers 7.12502
rthumb 26.8487 1000.37
lclavicle -5.13858e-014 2.06736e-014
lhumerus -52.2628 4.64375 71.0114
lradius 35.5933
lwrist -21.2841
lhand -3.9382 -30.5616
lfingers 7.12502
lthumb 21.8133 -1.7709
rfemur 16.6732 2.8448 40.9357
rtibia 2.70347e-014
rfoot -15.2933 -23.8599
rtoes 21.4876
lfemur -30.8462 -24.3098 -16.2658
ltibia 29.4216
lfoot -20.983 25.1406
ltoes 7.67047
